<svg width="27" height="39" viewBox="0 0 27 39" fill="none" xmlns="http://www.w3.org/2000/svg">
<path fill-rule="evenodd" clip-rule="evenodd" d="M21.3718 0.342068C21.8908 0.153176 22.4647 0.420762 22.6535 0.93974L26.0737 10.3367C26.2626 10.8556 25.9951 11.4295 25.4761 11.6184C24.9571 11.8073 24.3833 11.5397 24.1944 11.0207L20.7742 1.62378C20.5853 1.1048 20.8529 0.53096 21.3718 0.342068ZM0.293 14.7373C0.509017 14.229 1.09618 13.9921 1.60447 14.2081L20.4881 22.2335C20.9964 22.4495 21.2334 23.0366 21.0173 23.5449C20.8013 24.0532 20.2142 24.2902 19.7059 24.0741L0.8222 16.0487C0.313913 15.8327 0.0769824 15.2456 0.293 14.7373ZM7.00641 36.4444C6.46462 36.5515 6.11228 37.0776 6.21943 37.6194C6.32659 38.1612 6.85266 38.5135 7.39445 38.4064C11.0313 37.6871 12.9896 37.4326 16.4025 37.2247C16.9538 37.1911 17.3734 36.717 17.3399 36.1658C17.3063 35.6145 16.8322 35.1948 16.2809 35.2284C12.7728 35.4421 10.7254 35.7088 7.00641 36.4444Z" fill="#8D7CF6"/>
</svg>
